<svg xmlns="http://www.w3.org/2000/svg" xmlns:xlink="http://www.w3.org/1999/xlink" contentStyleType="text/css" data-diagram-type="DESCRIPTION" height="889px" preserveAspectRatio="none" style="width:2073px;height:889px;background:#FFFFFF;" version="1.1" viewBox="0 0 2073 889" width="2073px" zoomAndPan="magnify"><title>Responsibilities and data flows</title><defs/><g><g class="title" data-source-line="25"><text fill="#000000" font-family="DejaVu Sans" font-size="14" font-weight="bold" lengthAdjust="spacing" textLength="246.5244" x="908.2378" y="22.9951">Responsibilities and data flows</text></g><!--cluster App package tidal2wiim--><g class="cluster" data-entity="App package tidal2wiim" data-source-line="27" data-uid="ent0002" id="cluster_App package tidal2wiim"><path d="M109,119.2969 L336.8486,119.2969 A6,6 0 0 1 340.8486,123.2969 L347.8486,145.0859 L1549,145.0859 A4,4 0 0 1 1553,149.0859 L1553,487.2969 A4,4 0 0 1 1549,491.2969 L109,491.2969 A4,4 0 0 1 105,487.2969 L105,123.2969 A4,4 0 0 1 109,119.2969" fill="#F8FAFB" style="stroke:#819BA3;stroke-width:1.5;"/><line style="stroke:#819BA3;stroke-width:1.5;" x1="105" x2="347.8486" y1="145.0859" y2="145.0859"/><text fill="#000000" font-family="DejaVu Sans" font-size="17" font-weight="bold" lengthAdjust="spacing" textLength="229.8486" x="109" y="137.0767">App package tidal2wiim</text></g><!--entity SQL--><g class="entity" data-entity="SQL" data-source-line="40" data-uid="ent0014" id="entity_SQL"><path d="M1385.5,509.7969 C1385.5,499.7969 1453.0161,499.7969 1453.0161,499.7969 C1453.0161,499.7969 1520.5322,499.7969 1520.5322,509.7969 L1520.5322,558.375 C1520.5322,568.375 1453.0161,568.375 1453.0161,568.375 C1453.0161,568.375 1385.5,568.375 1385.5,558.375 L1385.5,509.7969" fill="#F1F1F1" style="stroke:#181818;stroke-width:0.5;"/><path d="M1385.5,509.7969 C1385.5,519.7969 1453.0161,519.7969 1453.0161,519.7969 C1453.0161,519.7969 1520.5322,519.7969 1520.5322,509.7969" fill="none" style="stroke:#181818;stroke-width:0.5;"/><text fill="#000000" font-family="DejaVu Sans" font-size="17" lengthAdjust="spacing" textLength="55.4907" x="1395.5" y="539.5767">SQLite</text><text fill="#000000" font-family="DejaVu Sans" font-size="17" lengthAdjust="spacing" textLength="115.0322" x="1395.5" y="559.3657">tidal2wiim.db</text></g><!--entity FS--><g class="entity" data-entity="FS" data-source-line="41" data-uid="ent0015" id="entity_FS"><path d="M1386,587.2969 L1424,587.2969 A6,6 0 0 1 1428,591.2969 L1435,608.2969 L1519.8281,608.2969 A4,4 0 0 1 1523.8281,612.2969 L1523.8281,660.875 A4,4 0 0 1 1519.8281,664.875 L1386,664.875 A4,4 0 0 1 1382,660.875 L1382,591.2969 A4,4 0 0 1 1386,587.2969" fill="#F1F1F1" style="stroke:#181818;stroke-width:0.5;"/><line style="stroke:#181818;stroke-width:0.5;" x1="1382" x2="1435" y1="608.2969" y2="608.2969"/><text fill="#000000" font-family="DejaVu Sans" font-size="17" lengthAdjust="spacing" textLength="96.5464" x="1392" y="631.0767">File system</text><text fill="#000000" font-family="DejaVu Sans" font-size="17" lengthAdjust="spacing" textLength="111.8281" x="1392" y="650.8657">cover_cache/</text></g><!--entity SEC--><g class="entity" data-entity="SEC" data-source-line="42" data-uid="ent0016" id="entity_SEC"><rect fill="#F1F7F8" height="69.5781" rx="4" ry="4" style="stroke:#176C78;stroke-width:0.5;" width="250.0264" x="1814" y="302.2969"/><rect fill="#F1F7F8" height="10" style="stroke:#176C78;stroke-width:0.5;" width="15" x="2044.0264" y="307.2969"/><rect fill="#F1F7F8" height="2" style="stroke:#176C78;stroke-width:0.5;" width="4" x="2042.0264" y="309.2969"/><rect fill="#F1F7F8" height="2" style="stroke:#176C78;stroke-width:0.5;" width="4" x="2042.0264" y="313.2969"/><text fill="#000000" font-family="DejaVu Sans" font-size="17" lengthAdjust="spacing" textLength="206.7393" x="1829" y="338.0767">Secure platform storage</text><text fill="#000000" font-family="DejaVu Sans" font-size="17" lengthAdjust="spacing" textLength="210.0264" x="1829" y="357.8657">SecureTidalSessionStore</text></g><!--entity TIDAL--><g class="entity" data-entity="TIDAL" data-source-line="43" data-uid="ent0017" id="entity_TIDAL"><path d="M1868.6029,400.385 C1871.1894,395.3671 1875.9012,394.9326 1879.5393,399.138 C1882.3324,393.4335 1887.5136,392.5913 1890.994,398.4576 C1893.3727,391.4068 1897.9622,391.135 1902.9825,395.7407 C1907.8006,390.4525 1912.2235,389.8457 1916.3303,396.5334 C1919.9361,390.8935 1924.3358,390.1506 1929.0706,395.186 C1931.5636,389.4276 1935.3902,389.1774 1939.7533,393.1283 C1943.9324,389.0679 1948.6427,388.9661 1951.0598,395.0853 C1954.9317,388.7914 1959.5508,388.8861 1963.5489,394.9579 C1968.4714,388.3984 1974.427,390.9413 1976.8296,397.5075 C1980.6246,392.3325 1985.2413,392.5957 1988.683,397.9069 C1993.0494,393.1014 1996.6966,393.5973 2000.0985,398.9868 C2003.7918,394.3133 2007.2294,393.727 2011.2962,398.5463 C2017.4887,401.8769 2019.2231,407.4045 2012.7657,412.106 C2019.4806,415.0951 2021.1531,420.2542 2015.2111,425.5462 C2020.7353,430.8675 2020.6196,436.052 2013.1191,439.4076 C2018.8735,444.6125 2017.5941,448.3799 2011.6243,452.2165 C2009.3096,458.2388 2006.2062,459.9239 2000.8624,455.2699 C1997.422,462.714 1992.9973,462.0739 1987.9398,456.9299 C1984.6833,463.5285 1980.73,463.9307 1976.3026,458.0191 C1973.9944,464.3655 1968.812,464.854 1964.8217,459.698 C1961.3778,465.5366 1957.6054,467.2118 1952.2896,461.7793 C1948.8143,467.5474 1943.457,469.9189 1938.8829,462.9344 C1934.5265,466.6664 1930.37,467.2598 1927.9296,460.8626 C1923.653,465.7702 1918.1952,466.1932 1915.6338,459.1046 C1911.6743,464.1495 1908.0469,463.1061 1905.0406,458.0998 C1899.6579,464.1769 1893.9812,463.5021 1891.08,455.6183 C1887.4947,459.5321 1883.5945,460.4989 1880.8851,454.699 C1875.8804,460.8889 1870.9595,459.3462 1867.8014,452.8017 C1859.1517,450.5554 1858.0091,446.0364 1863.3238,439.1948 C1857.1908,435.8164 1854.8947,430.5123 1861.3876,425.3661 C1855.5922,420.8284 1857.8808,416.4594 1863.3004,413.772 C1858.9646,408.0679 1860.2395,401.059 1868.6029,400.385" fill="#F1F1F1" style="stroke:#181818;stroke-width:0.5;"/><text fill="#000000" font-family="DejaVu Sans" font-size="17" lengthAdjust="spacing" textLength="127.2925" x="1874" y="421.0767">TIDAL OpenAPI</text><text fill="#000000" font-family="DejaVu Sans" font-size="17" lengthAdjust="spacing" textLength="129.6997" x="1874" y="440.8657">JSON metadata</text></g><!--entity LOGIN--><g class="entity" data-entity="LOGIN" data-source-line="44" data-uid="ent0018" id="entity_LOGIN"><path d="M1833.7211,621.1535 C1837.637,613.4039 1843.5624,612.5585 1848.3604,620.3209 C1852.6225,613.6485 1860.2853,613.0643 1864.1704,620.7364 C1869.1224,612.4038 1874.7159,611.9768 1880.7139,619.6556 C1883.7435,611.9307 1888.822,610.7821 1894.3045,617.3178 C1898.1995,611.5508 1905.3758,609.9484 1908.6968,617.9191 C1913.1905,608.1089 1919.2667,609.2635 1925.8089,615.7708 C1929.7137,606.7671 1934.3406,606.0136 1940.9139,613.296 C1947.0719,609.0594 1950.9566,610.4146 1954.0956,616.98 C1958.4042,610.5421 1964.7444,609.6648 1969.2622,616.7454 C1974.2655,608.3607 1982.8156,608.4666 1986.7648,617.7874 C1992.0377,611.9244 1996.1562,611.627 1999.9926,619.2014 C2004.0735,612.7044 2010.6558,611.3068 2015.1778,618.7198 C2020.6278,612.576 2029.0085,613.2086 2031.8066,621.7273 C2034.9442,614.9227 2041.7373,615.2763 2045.8374,620.6151 C2062.2715,625.1776 2066.6956,635.0167 2055.4143,648.9475 C2062.8155,661.476 2060.7158,670.1199 2046.3256,675.0653 C2042.238,681.4882 2037.8966,683.5855 2032.4686,676.4336 C2028.1311,683.4637 2020.3199,683.9145 2015.5465,676.9611 C2011.5043,684.4017 2004.8004,685.9868 1999.7423,678.0018 C1995.449,684.0502 1989.3092,684.8896 1985.0298,677.986 C1981.0627,685.3353 1976.3495,684.3504 1971.8381,678.5312 C1966.2826,686.4029 1960.6938,686.9324 1954.8009,678.8925 C1951.7044,686.7142 1945.1299,685.9642 1940.4699,680.5906 C1934.6721,687.4623 1928.2431,685.5699 1924.4275,678.3362 C1919.6579,684.6964 1914.3926,684.7087 1910.0636,677.8571 C1905.0222,685.4079 1898.6523,687.0572 1893.4887,677.979 C1888.6054,686.1715 1882.9252,685.0895 1878.3045,677.7227 C1873.6275,683.6497 1869.3295,683.033 1865.5078,676.821 C1860.8673,685.5127 1854.433,684.4235 1849.7024,676.9089 C1844.1992,682.3148 1838.216,682.6811 1835.1628,674.3211 C1819.7894,669.2167 1820.8573,659.6355 1829.1614,648.9339 C1816.4895,638.1847 1818.9412,627.3969 1833.7211,621.1535" fill="#F1F1F1" style="stroke:#181818;stroke-width:0.5;"/><text fill="#000000" font-family="DejaVu Sans" font-size="17" lengthAdjust="spacing" textLength="111.77" x="1839.5" y="643.0767">TIDAL sign-in</text><text fill="#000000" font-family="DejaVu Sans" font-size="17" lengthAdjust="spacing" textLength="198.6875" x="1839.5" y="662.8657">OAuth / token endpoint</text></g><!--entity CDN--><g class="entity" data-entity="CDN" data-source-line="45" data-uid="ent0019" id="entity_CDN"><path d="M1394.9025,691.3158 C1399.1087,686.3834 1403.4386,686.8622 1407.0154,692.068 C1410.2605,685.8813 1414.0112,685.9235 1418.7151,690.479 C1421.2443,684.8705 1425.9996,684.7071 1429.4115,689.578 C1432.197,682.9946 1438.4823,681.2661 1443.0881,687.6595 C1445.568,681.4965 1450.8972,680.3075 1454.8279,686.2528 C1457.8236,681.8369 1463.0971,681.6739 1465.3183,687.0799 C1470.4326,681.0977 1475.4657,682.6532 1477.8311,689.7166 C1482.2344,684.204 1487.0262,683.763 1490.5358,690.6335 C1494.31,685.2671 1499.8496,686.2796 1502.4032,691.9464 C1506.5373,686.3822 1510.5543,687.0198 1513.9954,692.6632 C1521.9691,696.1578 1522.2155,701.1915 1515.7837,706.5422 C1522.3124,708.5123 1522.8328,713.7883 1518.7913,718.4321 C1524.5148,723.3584 1524.0188,728.8043 1517.5916,732.7096 C1524.1516,737.808 1521.4971,744.1943 1514.4722,746.1368 C1512.7984,752.3693 1507.2893,753.8407 1503.1995,748.4876 C1499.3713,753.9245 1494.757,754.712 1490.408,749.0899 C1488.1647,755.5534 1482.2769,756.6747 1477.9551,751.2708 C1475.4633,758.0522 1469.4192,757.8856 1465.605,752.6274 C1461.4804,757.617 1457.3201,758.3085 1453.6271,752.1632 C1450.5495,757.4 1445.8745,756.2257 1443.0222,751.913 C1439.6382,756.5245 1433.8305,756.6211 1431.1102,751.1304 C1426.2408,756.2926 1419.9145,755.0638 1417.5094,748.3161 C1413.713,752.895 1408.2046,753.1626 1406.0846,746.5974 C1401.6848,752.2236 1397.9231,753.1573 1393.5793,746.5402 C1385.9358,742.4463 1385.624,736.6538 1392.7065,731.6942 C1385.1822,728.7804 1383.6165,724.497 1389.3782,718.2853 C1385.2244,712.9572 1385.3294,709.3055 1392.3361,706.869 C1386.0199,701.3326 1386.8059,694.474 1394.9025,691.3158" fill="#F1F1F1" style="stroke:#181818;stroke-width:0.5;"/><text fill="#000000" font-family="DejaVu Sans" font-size="17" lengthAdjust="spacing" textLength="91.8813" x="1400.5" y="714.0767">Cover host</text><text fill="#000000" font-family="DejaVu Sans" font-size="17" lengthAdjust="spacing" textLength="105.478" x="1400.5" y="733.8657">Image bytes</text></g><!--entity PLAYER--><g class="entity" data-entity="PLAYER" data-source-line="46" data-uid="ent0020" id="entity_PLAYER"><rect fill="#F1F7F8" height="69.5781" rx="4" ry="4" style="stroke:#176C78;stroke-width:0.5;" width="257.6714" x="790.5" y="809.2969"/><rect fill="#F1F7F8" height="10" style="stroke:#176C78;stroke-width:0.5;" width="15" x="1028.1714" y="814.2969"/><rect fill="#F1F7F8" height="2" style="stroke:#176C78;stroke-width:0.5;" width="4" x="1026.1714" y="816.2969"/><rect fill="#F1F7F8" height="2" style="stroke:#176C78;stroke-width:0.5;" width="4" x="1026.1714" y="820.2969"/><text fill="#000000" font-family="DejaVu Sans" font-size="17" lengthAdjust="spacing" textLength="163.2266" x="805.5" y="845.0767">External TIDAL app</text><text fill="#000000" font-family="DejaVu Sans" font-size="17" lengthAdjust="spacing" textLength="217.6714" x="805.5" y="864.8657">Playback / TIDAL Connect</text></g><g class="entity" data-entity="GMN29" data-source-line="56" data-uid="ent0030" id="entity_GMN29"><path d="M6,53.2969 L6,107.6797 A4,4 0 0 0 10,111.6797 L263.5,111.6797 L267.5,315.7266 L271.5,111.6797 L525.3682,111.6797 A4,4 0 0 0 529.3682,107.6797 L529.3682,59.2969 L519.3682,49.2969 L10,49.2969 A4,4 0 0 0 6,53.2969" fill="#FFF4DC" style="stroke:#BC8B39;stroke-width:0.5;"/><path d="M519.3682,49.2969 L519.3682,57.2969 A2,2 0 0 0 521.3682,59.2969 L529.3682,59.2969 L519.3682,49.2969" fill="#FFF4DC" style="stroke:#BC8B39;stroke-width:0.5;"/><text fill="#000000" font-family="DejaVu Sans" font-size="15" lengthAdjust="spacing" textLength="378.5449" x="12" y="68.2202">Domain grouping, not a rigid layered architecture.</text><text fill="#000000" font-family="DejaVu Sans" font-size="15" lengthAdjust="spacing" textLength="502.3682" x="12" y="85.6812">HomePage coordinates the UI, API loading and local data together.</text><text fill="#000000" font-family="DejaVu Sans" font-size="15" lengthAdjust="spacing" textLength="321.6504" x="12" y="103.1421">Callbacks and setState update the display.</text></g><!--entity UI--><g class="entity" data-entity="UI" data-source-line="28" data-uid="ent0003" id="entity_UI"><rect fill="#F1F7F8" height="89.3672" rx="4" ry="4" style="stroke:#176C78;stroke-width:0.5;" width="309.1694" x="113" y="315.7969"/><rect fill="#F1F7F8" height="10" style="stroke:#176C78;stroke-width:0.5;" width="15" x="402.1694" y="320.7969"/><rect fill="#F1F7F8" height="2" style="stroke:#176C78;stroke-width:0.5;" width="4" x="400.1694" y="322.7969"/><rect fill="#F1F7F8" height="2" style="stroke:#176C78;stroke-width:0.5;" width="4" x="400.1694" y="326.7969"/><text fill="#000000" font-family="DejaVu Sans" font-size="17" lengthAdjust="spacing" textLength="269.1694" x="128" y="351.5767">User interface and coordination</text><text fill="#000000" font-family="DejaVu Sans" font-size="17" lengthAdjust="spacing" textLength="254.2778" x="128" y="371.3657">HomePage / _HomePageState</text><text fill="#000000" font-family="DejaVu Sans" font-size="17" lengthAdjust="spacing" textLength="210.9893" x="128" y="391.1548">other pages and widgets</text></g><!--entity MODEL--><g class="entity" data-entity="MODEL" data-source-line="29" data-uid="ent0004" id="entity_MODEL"><rect fill="#F1F7F8" height="69.5781" rx="4" ry="4" style="stroke:#176C78;stroke-width:0.5;" width="270.7534" x="784" y="413.2969"/><rect fill="#F1F7F8" height="10" style="stroke:#176C78;stroke-width:0.5;" width="15" x="1034.7534" y="418.2969"/><rect fill="#F1F7F8" height="2" style="stroke:#176C78;stroke-width:0.5;" width="4" x="1032.7534" y="420.2969"/><rect fill="#F1F7F8" height="2" style="stroke:#176C78;stroke-width:0.5;" width="4" x="1032.7534" y="424.2969"/><text fill="#000000" font-family="DejaVu Sans" font-size="17" lengthAdjust="spacing" textLength="230.7534" x="799" y="449.0767">Domain data and functions</text><text fill="#000000" font-family="DejaVu Sans" font-size="17" lengthAdjust="spacing" textLength="126.6533" x="799" y="468.8657">models/ &#183; core/</text></g><!--entity DB--><g class="entity" data-entity="DB" data-source-line="30" data-uid="ent0005" id="entity_DB"><rect fill="#F1F7F8" height="69.5781" rx="4" ry="4" style="stroke:#176C78;stroke-width:0.5;" width="296.7764" x="771" y="237.2969"/><rect fill="#F1F7F8" height="10" style="stroke:#176C78;stroke-width:0.5;" width="15" x="1047.7764" y="242.2969"/><rect fill="#F1F7F8" height="2" style="stroke:#176C78;stroke-width:0.5;" width="4" x="1045.7764" y="244.2969"/><rect fill="#F1F7F8" height="2" style="stroke:#176C78;stroke-width:0.5;" width="4" x="1045.7764" y="248.2969"/><text fill="#000000" font-family="DejaVu Sans" font-size="17" lengthAdjust="spacing" textLength="114.3433" x="786" y="273.0767">Local storage</text><text fill="#000000" font-family="DejaVu Sans" font-size="17" lengthAdjust="spacing" textLength="256.7764" x="786" y="292.8657">LokaleDatenbank + extension</text></g><!--entity COVER--><g class="entity" data-entity="COVER" data-source-line="31" data-uid="ent0006" id="entity_COVER"><rect fill="#F1F7F8" height="69.5781" rx="4" ry="4" style="stroke:#176C78;stroke-width:0.5;" width="204.9531" x="817" y="325.2969"/><rect fill="#F1F7F8" height="10" style="stroke:#176C78;stroke-width:0.5;" width="15" x="1001.9531" y="330.2969"/><rect fill="#F1F7F8" height="2" style="stroke:#176C78;stroke-width:0.5;" width="4" x="999.9531" y="332.2969"/><rect fill="#F1F7F8" height="2" style="stroke:#176C78;stroke-width:0.5;" width="4" x="999.9531" y="336.2969"/><text fill="#000000" font-family="DejaVu Sans" font-size="17" lengthAdjust="spacing" textLength="89.9307" x="832" y="361.0767">Cover files</text><text fill="#000000" font-family="DejaVu Sans" font-size="17" lengthAdjust="spacing" textLength="164.9531" x="832" y="380.8657">LokalerCoverCache</text></g><!--entity API--><g class="entity" data-entity="API" data-source-line="32" data-uid="ent0007" id="entity_API"><rect fill="#F1F7F8" height="69.5781" rx="4" ry="4" style="stroke:#176C78;stroke-width:0.5;" width="266.271" x="786.5" y="149.2969"/><rect fill="#F1F7F8" height="10" style="stroke:#176C78;stroke-width:0.5;" width="15" x="1032.771" y="154.2969"/><rect fill="#F1F7F8" height="2" style="stroke:#176C78;stroke-width:0.5;" width="4" x="1030.771" y="156.2969"/><rect fill="#F1F7F8" height="2" style="stroke:#176C78;stroke-width:0.5;" width="4" x="1030.771" y="160.2969"/><text fill="#000000" font-family="DejaVu Sans" font-size="17" lengthAdjust="spacing" textLength="104.5898" x="801.5" y="185.0767">JSON access</text><text fill="#000000" font-family="DejaVu Sans" font-size="17" lengthAdjust="spacing" textLength="226.271" x="801.5" y="204.8657">_apiLesen() / tidal_api.dart</text></g><!--entity AUTH--><g class="entity" data-entity="AUTH" data-source-line="33" data-uid="ent0008" id="entity_AUTH"><rect fill="#F1F7F8" height="69.5781" rx="4" ry="4" style="stroke:#176C78;stroke-width:0.5;" width="183.7114" x="1361" y="346.2969"/><rect fill="#F1F7F8" height="10" style="stroke:#176C78;stroke-width:0.5;" width="15" x="1524.7114" y="351.2969"/><rect fill="#F1F7F8" height="2" style="stroke:#176C78;stroke-width:0.5;" width="4" x="1522.7114" y="353.2969"/><rect fill="#F1F7F8" height="2" style="stroke:#176C78;stroke-width:0.5;" width="4" x="1522.7114" y="357.2969"/><text fill="#000000" font-family="DejaVu Sans" font-size="17" lengthAdjust="spacing" textLength="64.8623" x="1376" y="382.0767">Session</text><text fill="#000000" font-family="DejaVu Sans" font-size="17" lengthAdjust="spacing" textLength="143.7114" x="1376" y="401.8657">TidalAuthService</text></g><g class="link" data-entity-1="UI" data-entity-2="MODEL" data-uid="lnk9" id="link_UI_MODEL"><polygon fill="#176C78" points="783.8433,430.0664,775.4613,424.8951,778.8885,429.3956,774.388,432.8228,783.8433,430.0664" style="stroke:#176C78;stroke-width:1;"/><path d="M422.1292,381.0959 C532.0199,395.9734 672.577,415.0027 777.8975,429.2615" fill="none" style="stroke:#176C78;stroke-width:1.2;"/><text fill="#000000" font-family="DejaVu Sans" font-size="17" lengthAdjust="spacing" textLength="169.3691" x="565.5" y="393.0767">Objects, lists, drafts</text></g><g class="link" data-entity-1="UI" data-entity-2="DB" data-uid="lnk10" id="link_UI_DB"><polygon fill="#176C78" points="770.9676,292.2705,761.5124,289.5141,766.0128,292.9413,762.5856,297.4418,770.9676,292.2705" style="stroke:#176C78;stroke-width:1;"/><path d="M422.1292,339.4978 C527.6093,325.2175 660.8757,307.1752 765.0219,293.0755" fill="none" style="stroke:#176C78;stroke-width:1.2;"/><text fill="#000000" font-family="DejaVu Sans" font-size="17" lengthAdjust="spacing" textLength="182.2686" x="559" y="291.0767">Future&lt;T&gt; / changes</text></g><g class="link" data-entity-1="UI" data-entity-2="COVER" data-uid="lnk11" id="link_UI_COVER"><polygon fill="#176C78" points="816.5582,360.2969,807.5582,356.2969,811.5582,360.2969,807.5582,364.2969,816.5582,360.2969" style="stroke:#176C78;stroke-width:1;"/><path d="M422.1292,360.2969 C543.938,360.2969 704.7311,360.2969 810.5582,360.2969" fill="none" style="stroke:#176C78;stroke-width:1.2;"/><text fill="#000000" font-family="DejaVu Sans" font-size="17" lengthAdjust="spacing" textLength="202.1655" x="549" y="355.0767">Album &#8594; Future&lt;File?&gt;</text></g><g class="link" data-entity-1="UI" data-entity-2="API" data-uid="lnk12" id="link_UI_API"><polygon fill="#176C78" points="786.2414,211.4978,776.5989,209.4921,781.3546,212.5554,778.2912,217.3111,786.2414,211.4978" style="stroke:#176C78;stroke-width:1;"/><path d="M396.7076,315.7048 C443.6982,300.0777 497.4914,283.0186 547,269.2969 C625.7431,247.4725 709.1067,228.1923 780.3772,212.767" fill="none" style="stroke:#176C78;stroke-width:1.2;"/><text fill="#000000" font-family="DejaVu Sans" font-size="17" lengthAdjust="spacing" textLength="161.7656" x="569.5" y="215.0767">Path + parameters</text></g><g class="link" data-entity-1="API" data-entity-2="AUTH" data-uid="lnk13" id="link_API_AUTH"><polygon fill="#176C78" points="1370.0299,346.1674,1363.2866,338.9892,1365.4215,344.2277,1360.183,346.3627,1370.0299,346.1674" style="stroke:#176C78;stroke-width:1;"/><path d="M1041.1276,219.3167 C1050.2518,222.2597 1059.2917,225.2699 1068,228.2969 C1173.5757,264.9944 1287.2942,311.3436 1364.4998,343.8398" fill="none" style="stroke:#176C78;stroke-width:1.2;"/><text fill="#000000" font-family="DejaVu Sans" font-size="17" lengthAdjust="spacing" textLength="121.1665" x="1154" y="231.0767">get(client, uri)</text></g><g class="link" data-entity-1="DB" data-entity-2="SQL" data-uid="lnk21" id="link_DB_SQL"><polygon fill="#176C78" points="1385.239,506.1256,1378.5987,498.852,1380.6587,504.1204,1375.3903,506.1804,1385.239,506.1256" style="stroke:#176C78;stroke-width:1;"/><path d="M1057.035,307.4966 C1060.8766,310.2152 1064.5469,313.1433 1068,316.2969 C1083.9057,330.823 1071.3337,345.5203 1086,361.2969 C1178.5706,460.8751 1237.369,438.7238 1361,495.2969 C1368.8149,498.8729 1371.5521,500.1335 1379.7426,503.7193" fill="none" style="stroke:#176C78;stroke-width:1.2;"/><text fill="#000000" font-family="DejaVu Sans" font-size="17" lengthAdjust="spacing" textLength="190.0796" x="1119.5" y="356.0767">Records / transactions</text></g><g class="link" data-entity-1="COVER" data-entity-2="FS" data-uid="lnk22" id="link_COVER_FS"><polygon fill="#176C78" points="1381.7455,625.2649,1373.0149,620.7069,1376.7554,624.9505,1372.5118,628.6911,1381.7455,625.2649" style="stroke:#176C78;stroke-width:1;"/><path d="M1022.1007,374.2993 C1039.4611,380.9022 1055.8,390.4714 1068,404.2969 C1100.1975,440.7842 1054.023,475.6162 1086,512.2969 C1160.5653,597.8303 1292.1683,619.621 1375.7574,624.8876" fill="none" style="stroke:#176C78;stroke-width:1.2;"/><text fill="#000000" font-family="DejaVu Sans" font-size="17" lengthAdjust="spacing" textLength="77.6289" x="1176" y="507.0767">.img files</text></g><g class="link" data-entity-1="COVER" data-entity-2="CDN" data-uid="lnk23" id="link_COVER_CDN"><polygon fill="#176C78" points="1385.3482,727.111,1376.0498,723.8643,1380.3651,727.522,1376.7074,731.8372,1385.3482,727.111" style="stroke:#176C78;stroke-width:1;"/><path d="M1022.0019,373.0009 C1039.7008,379.6859 1056.1917,389.6172 1068,404.2969 C1101.939,446.4886 1050.0293,606.8233 1086,647.2969 C1160.4939,731.1159 1295.8079,734.4958 1379.3685,727.6042" fill="none" style="stroke:#176C78;stroke-width:1.2;"/><text fill="#000000" font-family="DejaVu Sans" font-size="17" lengthAdjust="spacing" textLength="253.2319" x="1088" y="642.0767">HTTPS, without OAuth header</text></g><g class="link" data-entity-1="AUTH" data-entity-2="SEC" data-uid="lnk24" id="link_AUTH_SEC"><polygon fill="#176C78" points="1813.579,348.6079,1804.2539,345.4391,1808.5996,349.0606,1804.9781,353.4063,1813.579,348.6079" style="stroke:#176C78;stroke-width:1;"/><path d="M1545.0367,373.0208 C1620.8887,366.1252 1723.7106,356.7777 1807.6037,349.1511" fill="none" style="stroke:#176C78;stroke-width:1.2;"/><text fill="#000000" font-family="DejaVu Sans" font-size="17" lengthAdjust="spacing" textLength="199.1855" x="1580" y="345.0767">One JSON token bundle</text></g><g class="link" data-entity-1="AUTH" data-entity-2="TIDAL" data-uid="lnk25" id="link_AUTH_TIDAL"><polygon fill="#176C78" points="1858.838,421.0279,1850.0893,416.5045,1853.8467,420.7333,1849.6179,424.4906,1858.838,421.0279" style="stroke:#176C78;stroke-width:1;"/><path d="M1545.2304,395.1771 C1551.238,395.9402 1557.2018,396.6557 1563,397.2969 C1664.877,408.563 1776.8486,416.1882 1852.8484,420.6743" fill="none" style="stroke:#176C78;stroke-width:1.2;"/><text fill="#000000" font-family="DejaVu Sans" font-size="17" lengthAdjust="spacing" textLength="229.002" x="1565" y="392.0767">HTTPS GET + bearer token</text></g><g class="link" data-entity-1="AUTH" data-entity-2="LOGIN" data-uid="lnk26" id="link_AUTH_LOGIN"><polygon fill="#176C78" points="1872.7594,612.2899,1866.7293,604.5029,1868.3564,609.9207,1862.9386,611.5478,1872.7594,612.2899" style="stroke:#176C78;stroke-width:1;"/><path d="M1515.2791,416.4224 C1530.8147,425.2532 1547.4949,434.6708 1563,443.2969 C1671.1589,503.4698 1792.5027,569.1055 1867.4758,609.4469" fill="none" style="stroke:#176C78;stroke-width:1.2;"/><text fill="#000000" font-family="DejaVu Sans" font-size="17" lengthAdjust="spacing" textLength="133.1943" x="1613" y="438.0767">POST to refresh</text></g><g class="link" data-entity-1="UI" data-entity-2="LOGIN" data-uid="lnk27" id="link_UI_LOGIN"><polygon fill="#176C78" points="1850.8945,682.3856,1841.0648,681.7717,1846.2078,684.1275,1843.8519,689.2705,1850.8945,682.3856" style="stroke:#176C78;stroke-width:1;"/><path d="M330.39,404.9176 C461.6834,496.493 781.1275,703.1876 1086,776.2969 C1361.4991,842.3624 1690.0105,742.1829 1845.2704,684.4759" fill="none" style="stroke:#176C78;stroke-width:1.2;"/><text fill="#000000" font-family="DejaVu Sans" font-size="17" lengthAdjust="spacing" textLength="153.7554" x="1138.1213" y="751.0767">Interactive sign-in</text><text fill="#000000" font-family="DejaVu Sans" font-size="17" lengthAdjust="spacing" textLength="161.998" x="1134" y="770.8657">via flutter_appauth</text></g><g class="link" data-entity-1="UI" data-entity-2="PLAYER" data-uid="lnk28" id="link_UI_PLAYER"><polygon fill="#176C78" points="790.1303,872.1052,780.7042,869.2505,785.1687,872.7244,781.6948,877.1889,790.1303,872.1052" style="stroke:#176C78;stroke-width:1;"/><path d="M278.8533,404.9761 C304.495,504.0865 381.2353,741.2402 547,838.2969 C619.504,880.7486 708.4445,882.2985 784.1764,872.8482" fill="none" style="stroke:#176C78;stroke-width:1.2;"/><text fill="#000000" font-family="DejaVu Sans" font-size="17" lengthAdjust="spacing" textLength="138.9385" x="581" y="813.0767">Album/track link</text><text fill="#000000" font-family="DejaVu Sans" font-size="17" lengthAdjust="spacing" textLength="135.8506" x="582.5439" y="832.8657">via url_launcher</text></g><!--SRC=[ZLRRRjj647tdLqpLbmIrvJffQwSeN52K6QjGBDMK0nGGO2oNGt6ZvIwpkxJZ5dtj1_Hd-jvFwPTqTgchxHZHYmJEcTcPSyuEzLLZsA9c8DczRXtO6XrJBB9BeHfcM0qvuyk5qQqg4YsrWQ_JyDb155YoLhfKAtV9QeGXVc3lMyYOia-ZCl4xml79Jj1MhD1tGYsWPDBYJYISpBLHQE1qvtbiZBvRTNHyyaDoiXiS2uMVYt79h8sTCo9l7OwuLg6TRnz21e_cFavFqaUL1jeKQ3vxcAuRhL2vBwYsWJvRiQ52R86FwvscSJfu0hXRxVJupI1-lGEwrEw9KcdwtJ1vYDgjCqXE1w_VF41ibVr-LrdysABY-0wjfNPYAHOAE8s9vWdKb1adk6ZObp3sLDAptAqJng94Rv7dkLcZWzDcbU1BHJF0SVzLL8a2eTJQvVfJv8IJ25TeIJuhSY654sY1gG8AvXYKKj_PI6Bfm6amOb4vA8H1xeHMqKecwCLDizOCd2YOV7KdHDs3FwAjDQ1tRUaU2CzUoJY6GxYcCOHYljnSNUYQ2A4QHt2p_fqvvd2kjAiekQ47NNTtebYWiprW5gv7UySCTSs4wlhtqB9LeLqxLxKkKDeZ-FSVIZ1u5DBVJORduxqAOysP1EiqhHSwUwoNJEAG-b0vKqlu1l0J_RPKCnGO3lQo4trBhPP2ebtdcl0iORp2a95CtfzVxINzaaqkWN5EAitL3Ml462sg5o-9Ya2eVzGlo2mXFvxkZvnHMc1mvh5nwweCpQtWtMdnzUmY8fRWyF2icnP-X4d-WLIq1o25zL-5OQMp6zXmG9YqTQt1dsPdr0Mlc2BoDu0m0c5YcRSr_FVNtsjqIeF_VBR1KQk4cZ9N4M_1d4W6e3e-403K7I58pHTS2Xhd05eZNaP_Hbx1d5doL_RhM7WNRBtLB_8m6qMYKakw2j3p9uEzjmxhkUAUyHlkAUzaJhDeZp5EpK8ZcIkrgRTYTu70uuhLZ48TaTbv4d6fsm9wiz4m7iEaGKLpp5MGpxz-VCy16m3xQ4lhur2GIXEla5TMBr41ggBHT2r2sdZoTdIvJkkSL6dhvcfK-ukHtpliJ9yCBtVdEIT76aMkxOvYJJDNKtel-ZSWdTGzJRHI97h8duxZtyY3fBCNWMWa3QwGRaLXVMU6Ne2ikpPH9xM7fHcX-g9UTFRUYL0x5BgOpQRP0LrEL_aNSZTdXOpaYOBEuQppnFjF8GJMEX9osfKIjw2kuLL5U7i-8_Vao0pn4HAsoC2OjzWacuKbXQL1MqKh_wt38xzt_4Itk1NYLlWLrpeAqGLh6BMxpkluMHlyY0WX8gLGoowhDV96Cjeij9OYsauaZNPErw3Bi8zMIyY_11hwQt00X07cDwWe_FyLD5W0CxmYNtD_R_eHRDRVPYlIigEzHmKFmdMHcXN-VuRVQZBigB3adARBGtrGYOH9wINlbgH55zOdj4tXltojGbWo_Nq_8jlvfl1_]--></g></svg>