<svg xmlns="http://www.w3.org/2000/svg" xmlns:xlink="http://www.w3.org/1999/xlink" contentStyleType="text/css" data-diagram-type="CLASS" height="1229px" preserveAspectRatio="none" style="width:1090px;height:1229px;background:#FFFFFF;" version="1.1" viewBox="0 0 1090 1229" width="1090px" zoomAndPan="magnify"><title>User interface: objects and callbacks</title><defs/><g><g class="title" data-source-line="25"><text fill="#000000" font-family="DejaVu Sans" font-size="14" font-weight="bold" lengthAdjust="spacing" textLength="291.833" x="395.3335" y="22.9951">User interface: objects and callbacks</text></g><!--class Tidal2WiiMApp--><g class="entity" data-entity="Tidal2WiiMApp" data-source-line="27" data-uid="ent0002" id="entity_Tidal2WiiMApp"><rect fill="#F1F7F8" height="65.5781" rx="4" ry="4" style="stroke:#176C78;stroke-width:0.5;" width="186.9351" x="414.5" y="49.2969"/><ellipse cx="429.5" cy="74.0859" fill="#ADD1B2" rx="11" ry="11" style="stroke:#181818;stroke-width:1;"/><path d="M432.4688,79.7266 Q431.8906,80.0234 431.25,80.1641 Q430.6094,80.3203 429.9063,80.3203 Q427.4063,80.3203 426.0781,78.6797 Q424.7656,77.0234 424.7656,73.8984 Q424.7656,70.7734 426.0781,69.1172 Q427.4063,67.4609 429.9063,67.4609 Q430.6094,67.4609 431.25,67.6172 Q431.9063,67.7734 432.4688,68.0703 L432.4688,70.7891 Q431.8438,70.2109 431.25,69.9453 Q430.6563,69.6641 430.0313,69.6641 Q428.6875,69.6641 428,70.7422 Q427.3125,71.8047 427.3125,73.8984 Q427.3125,75.9922 428,77.0703 Q428.6875,78.1328 430.0313,78.1328 Q430.6563,78.1328 431.25,77.8672 Q431.8438,77.5859 432.4688,77.0078 L432.4688,79.7266 Z " fill="#000000"/><text fill="#000000" font-family="DejaVu Sans" font-size="17" font-style="italic" lengthAdjust="spacing" textLength="158.9351" x="441.5" y="70.0767">&#171;StatelessWidget&#187;</text><text fill="#000000" font-family="DejaVu Sans" font-size="17" lengthAdjust="spacing" textLength="125.9893" x="457.9729" y="89.8657">Tidal2WiiMApp</text><line style="stroke:#176C78;stroke-width:0.5;" x1="415.5" x2="600.4351" y1="98.875" y2="98.875"/><line style="stroke:#176C78;stroke-width:0.5;" x1="415.5" x2="600.4351" y1="106.875" y2="106.875"/></g><!--class HomePage--><g class="entity" data-entity="HomePage" data-source-line="28" data-uid="ent0003" id="entity_HomePage"><rect fill="#F1F7F8" height="65.5781" rx="4" ry="4" style="stroke:#176C78;stroke-width:0.5;" width="175.5215" x="420" y="174.2969"/><ellipse cx="435" cy="199.0859" fill="#ADD1B2" rx="11" ry="11" style="stroke:#181818;stroke-width:1;"/><path d="M437.9688,204.7266 Q437.3906,205.0234 436.75,205.1641 Q436.1094,205.3203 435.4063,205.3203 Q432.9063,205.3203 431.5781,203.6797 Q430.2656,202.0234 430.2656,198.8984 Q430.2656,195.7734 431.5781,194.1172 Q432.9063,192.4609 435.4063,192.4609 Q436.1094,192.4609 436.75,192.6172 Q437.4063,192.7734 437.9688,193.0703 L437.9688,195.7891 Q437.3438,195.2109 436.75,194.9453 Q436.1563,194.6641 435.5313,194.6641 Q434.1875,194.6641 433.5,195.7422 Q432.8125,196.8047 432.8125,198.8984 Q432.8125,200.9922 433.5,202.0703 Q434.1875,203.1328 435.5313,203.1328 Q436.1563,203.1328 436.75,202.8672 Q437.3438,202.5859 437.9688,202.0078 L437.9688,204.7266 Z " fill="#000000"/><text fill="#000000" font-family="DejaVu Sans" font-size="17" font-style="italic" lengthAdjust="spacing" textLength="147.5215" x="447" y="195.0767">&#171;StatefulWidget&#187;</text><text fill="#000000" font-family="DejaVu Sans" font-size="17" lengthAdjust="spacing" textLength="92.1221" x="474.6997" y="214.8657">HomePage</text><line style="stroke:#176C78;stroke-width:0.5;" x1="421" x2="594.5215" y1="223.875" y2="223.875"/><line style="stroke:#176C78;stroke-width:0.5;" x1="421" x2="594.5215" y1="231.875" y2="231.875"/></g><!--class _HomePageState--><g class="entity" data-entity="_HomePageState" data-source-line="29" data-uid="ent0004" id="entity__HomePageState"><rect fill="#F1F7F8" height="186.5234" rx="4" ry="4" style="stroke:#176C78;stroke-width:0.5;" width="345.2847" x="335.5" y="299.2969"/><ellipse cx="431.082" cy="315.2969" fill="#ADD1B2" rx="11" ry="11" style="stroke:#181818;stroke-width:1;"/><path d="M434.0508,320.9375 Q433.4727,321.2344 432.832,321.375 Q432.1914,321.5313 431.4883,321.5313 Q428.9883,321.5313 427.6602,319.8906 Q426.3477,318.2344 426.3477,315.1094 Q426.3477,311.9844 427.6602,310.3281 Q428.9883,308.6719 431.4883,308.6719 Q432.1914,308.6719 432.832,308.8281 Q433.4883,308.9844 434.0508,309.2813 L434.0508,312 Q433.4258,311.4219 432.832,311.1563 Q432.2383,310.875 431.6133,310.875 Q430.2695,310.875 429.582,311.9531 Q428.8945,313.0156 428.8945,315.1094 Q428.8945,317.2031 429.582,318.2813 Q430.2695,319.3438 431.6133,319.3438 Q432.2383,319.3438 432.832,319.0781 Q433.4258,318.7969 434.0508,318.2188 L434.0508,320.9375 Z " fill="#000000"/><text fill="#000000" font-family="DejaVu Sans" font-size="17" lengthAdjust="spacing" textLength="145.6206" x="451.582" y="321.1821">_HomePageState</text><line style="stroke:#176C78;stroke-width:0.5;" x1="336.5" x2="679.7847" y1="331.2969" y2="331.2969"/><text fill="#000000" font-family="DejaVu Sans" font-size="17" lengthAdjust="spacing" textLength="208.1089" x="341.5" y="351.0767">-_auth: TidalAuthService</text><text fill="#000000" font-family="DejaVu Sans" font-size="17" lengthAdjust="spacing" textLength="185.6138" x="341.5" y="370.8657">-_alben: List&lt;Album&gt;</text><text fill="#000000" font-family="DejaVu Sans" font-size="17" lengthAdjust="spacing" textLength="177.1719" x="341.5" y="390.6548">-_appSeite: AppSeite</text><text fill="#000000" font-family="DejaVu Sans" font-size="17" lengthAdjust="spacing" textLength="256.4277" x="341.5" y="410.4438">-_kuenstlerEinstellungen: Map</text><text fill="#000000" font-family="DejaVu Sans" font-size="17" lengthAdjust="spacing" textLength="257.5483" x="341.5" y="430.2329">-_kategorien: List&lt;Kategorie&gt;</text><line style="stroke:#176C78;stroke-width:0.5;" x1="336.5" x2="679.7847" y1="438.2422" y2="438.2422"/><text fill="#000000" font-family="DejaVu Sans" font-size="17" lengthAdjust="spacing" textLength="262.6699" x="341.5" y="458.022">-_initialisieren(): Future&lt;void&gt;</text><text fill="#000000" font-family="DejaVu Sans" font-size="17" lengthAdjust="spacing" textLength="333.2847" x="341.5" y="477.811">-_albumOeffnen(album): Future&lt;void&gt;</text></g><!--class StartPage--><g class="entity" data-entity="StartPage" data-source-line="38" data-uid="ent0005" id="entity_StartPage"><rect fill="#F1F7F8" height="144.7344" rx="4" ry="4" style="stroke:#176C78;stroke-width:0.5;" width="289.8936" x="6" y="545.2969"/><ellipse cx="69.2292" cy="570.0859" fill="#ADD1B2" rx="11" ry="11" style="stroke:#181818;stroke-width:1;"/><path d="M72.198,575.7266 Q71.6199,576.0234 70.9792,576.1641 Q70.3386,576.3203 69.6355,576.3203 Q67.1355,576.3203 65.8074,574.6797 Q64.4949,573.0234 64.4949,569.8984 Q64.4949,566.7734 65.8074,565.1172 Q67.1355,563.4609 69.6355,563.4609 Q70.3386,563.4609 70.9792,563.6172 Q71.6355,563.7734 72.198,564.0703 L72.198,566.7891 Q71.573,566.2109 70.9792,565.9453 Q70.3855,565.6641 69.7605,565.6641 Q68.4167,565.6641 67.7292,566.7422 Q67.0417,567.8047 67.0417,569.8984 Q67.0417,571.9922 67.7292,573.0703 Q68.4167,574.1328 69.7605,574.1328 Q70.3855,574.1328 70.9792,573.8672 Q71.573,573.5859 72.198,573.0078 L72.198,575.7266 Z " fill="#000000"/><text fill="#000000" font-family="DejaVu Sans" font-size="17" font-style="italic" lengthAdjust="spacing" textLength="158.9351" x="87.7292" y="566.0767">&#171;StatelessWidget&#187;</text><text fill="#000000" font-family="DejaVu Sans" font-size="17" lengthAdjust="spacing" textLength="83.4478" x="125.4729" y="585.8657">StartPage</text><line style="stroke:#176C78;stroke-width:0.5;" x1="7" x2="294.8936" y1="594.875" y2="594.875"/><text fill="#000000" font-family="DejaVu Sans" font-size="17" lengthAdjust="spacing" textLength="158.0469" x="12" y="614.6548">+albumAnzahl: int</text><text fill="#000000" font-family="DejaVu Sans" font-size="17" lengthAdjust="spacing" textLength="265.1519" x="12" y="634.4438">+tidalSitzungGespeichert: bool</text><text fill="#000000" font-family="DejaVu Sans" font-size="17" lengthAdjust="spacing" textLength="277.8936" x="12" y="654.2329">+onSammlungOeffnen: Callback</text><text fill="#000000" font-family="DejaVu Sans" font-size="17" lengthAdjust="spacing" textLength="234.5718" x="12" y="674.022">+onLaborOeffnen: Callback</text><line style="stroke:#176C78;stroke-width:0.5;" x1="7" x2="294.8936" y1="682.0313" y2="682.0313"/></g><!--class KuenstlerPage--><g class="entity" data-entity="KuenstlerPage" data-source-line="44" data-uid="ent0006" id="entity_KuenstlerPage"><rect fill="#F1F7F8" height="65.5781" rx="4" ry="4" style="stroke:#176C78;stroke-width:0.5;" width="186.9351" x="314.5" y="584.7969"/><ellipse cx="329.5" cy="609.5859" fill="#ADD1B2" rx="11" ry="11" style="stroke:#181818;stroke-width:1;"/><path d="M332.4688,615.2266 Q331.8906,615.5234 331.25,615.6641 Q330.6094,615.8203 329.9063,615.8203 Q327.4063,615.8203 326.0781,614.1797 Q324.7656,612.5234 324.7656,609.3984 Q324.7656,606.2734 326.0781,604.6172 Q327.4063,602.9609 329.9063,602.9609 Q330.6094,602.9609 331.25,603.1172 Q331.9063,603.2734 332.4688,603.5703 L332.4688,606.2891 Q331.8438,605.7109 331.25,605.4453 Q330.6563,605.1641 330.0313,605.1641 Q328.6875,605.1641 328,606.2422 Q327.3125,607.3047 327.3125,609.3984 Q327.3125,611.4922 328,612.5703 Q328.6875,613.6328 330.0313,613.6328 Q330.6563,613.6328 331.25,613.3672 Q331.8438,613.0859 332.4688,612.5078 L332.4688,615.2266 Z " fill="#000000"/><text fill="#000000" font-family="DejaVu Sans" font-size="17" font-style="italic" lengthAdjust="spacing" textLength="158.9351" x="341.5" y="605.5767">&#171;StatelessWidget&#187;</text><text fill="#000000" font-family="DejaVu Sans" font-size="17" lengthAdjust="spacing" textLength="122.7686" x="359.5833" y="625.3657">KuenstlerPage</text><line style="stroke:#176C78;stroke-width:0.5;" x1="315.5" x2="500.4351" y1="634.375" y2="634.375"/><line style="stroke:#176C78;stroke-width:0.5;" x1="315.5" x2="500.4351" y1="642.375" y2="642.375"/></g><!--class KategoriePage--><g class="entity" data-entity="KategoriePage" data-source-line="45" data-uid="ent0007" id="entity_KategoriePage"><rect fill="#F1F7F8" height="65.5781" rx="4" ry="4" style="stroke:#176C78;stroke-width:0.5;" width="175.5215" x="520" y="584.7969"/><ellipse cx="535" cy="609.5859" fill="#ADD1B2" rx="11" ry="11" style="stroke:#181818;stroke-width:1;"/><path d="M537.9688,615.2266 Q537.3906,615.5234 536.75,615.6641 Q536.1094,615.8203 535.4063,615.8203 Q532.9063,615.8203 531.5781,614.1797 Q530.2656,612.5234 530.2656,609.3984 Q530.2656,606.2734 531.5781,604.6172 Q532.9063,602.9609 535.4063,602.9609 Q536.1094,602.9609 536.75,603.1172 Q537.4063,603.2734 537.9688,603.5703 L537.9688,606.2891 Q537.3438,605.7109 536.75,605.4453 Q536.1563,605.1641 535.5313,605.1641 Q534.1875,605.1641 533.5,606.2422 Q532.8125,607.3047 532.8125,609.3984 Q532.8125,611.4922 533.5,612.5703 Q534.1875,613.6328 535.5313,613.6328 Q536.1563,613.6328 536.75,613.3672 Q537.3438,613.0859 537.9688,612.5078 L537.9688,615.2266 Z " fill="#000000"/><text fill="#000000" font-family="DejaVu Sans" font-size="17" font-style="italic" lengthAdjust="spacing" textLength="147.5215" x="547" y="605.5767">&#171;StatefulWidget&#187;</text><text fill="#000000" font-family="DejaVu Sans" font-size="17" lengthAdjust="spacing" textLength="123.9722" x="558.7747" y="625.3657">KategoriePage</text><line style="stroke:#176C78;stroke-width:0.5;" x1="521" x2="694.5215" y1="634.375" y2="634.375"/><line style="stroke:#176C78;stroke-width:0.5;" x1="521" x2="694.5215" y1="642.375" y2="642.375"/></g><!--class AlbumGrid--><g class="entity" data-entity="AlbumGrid" data-source-line="46" data-uid="ent0008" id="entity_AlbumGrid"><rect fill="#F1F7F8" height="124.9453" rx="4" ry="4" style="stroke:#176C78;stroke-width:0.5;" width="313.7002" x="352" y="749.2969"/><ellipse cx="427.1326" cy="774.0859" fill="#ADD1B2" rx="11" ry="11" style="stroke:#181818;stroke-width:1;"/><path d="M430.1013,779.7266 Q429.5232,780.0234 428.8826,780.1641 Q428.2419,780.3203 427.5388,780.3203 Q425.0388,780.3203 423.7107,778.6797 Q422.3982,777.0234 422.3982,773.8984 Q422.3982,770.7734 423.7107,769.1172 Q425.0388,767.4609 427.5388,767.4609 Q428.2419,767.4609 428.8826,767.6172 Q429.5388,767.7734 430.1013,768.0703 L430.1013,770.7891 Q429.4763,770.2109 428.8826,769.9453 Q428.2888,769.6641 427.6638,769.6641 Q426.3201,769.6641 425.6326,770.7422 Q424.9451,771.8047 424.9451,773.8984 Q424.9451,775.9922 425.6326,777.0703 Q426.3201,778.1328 427.6638,778.1328 Q428.2888,778.1328 428.8826,777.8672 Q429.4763,777.5859 430.1013,777.0078 L430.1013,779.7266 Z " fill="#000000"/><text fill="#000000" font-family="DejaVu Sans" font-size="17" font-style="italic" lengthAdjust="spacing" textLength="158.9351" x="445.6326" y="770.0767">&#171;StatelessWidget&#187;</text><text fill="#000000" font-family="DejaVu Sans" font-size="17" lengthAdjust="spacing" textLength="90.1548" x="480.0227" y="789.8657">AlbumGrid</text><line style="stroke:#176C78;stroke-width:0.5;" x1="353" x2="664.7002" y1="798.875" y2="798.875"/><text fill="#000000" font-family="DejaVu Sans" font-size="17" lengthAdjust="spacing" textLength="185.2236" x="358" y="818.6548">+alben: List&lt;Album&gt;</text><text fill="#000000" font-family="DejaVu Sans" font-size="17" lengthAdjust="spacing" textLength="270.5474" x="358" y="838.4438">+authService: TidalAuthService</text><text fill="#000000" font-family="DejaVu Sans" font-size="17" lengthAdjust="spacing" textLength="301.7002" x="358" y="858.2329">+onKategorienGeaendert: Callback</text><line style="stroke:#176C78;stroke-width:0.5;" x1="353" x2="664.7002" y1="866.2422" y2="866.2422"/></g><!--class AlbumDetailPage--><g class="entity" data-entity="AlbumDetailPage" data-source-line="51" data-uid="ent0009" id="entity_AlbumDetailPage"><rect fill="#F1F7F8" height="144.7344" rx="4" ry="4" style="stroke:#176C78;stroke-width:0.5;" width="313.7002" x="567" y="933.2969"/><ellipse cx="646.3623" cy="958.0859" fill="#ADD1B2" rx="11" ry="11" style="stroke:#181818;stroke-width:1;"/><path d="M649.3311,963.7266 Q648.7529,964.0234 648.1123,964.1641 Q647.4717,964.3203 646.7686,964.3203 Q644.2686,964.3203 642.9404,962.6797 Q641.6279,961.0234 641.6279,957.8984 Q641.6279,954.7734 642.9404,953.1172 Q644.2686,951.4609 646.7686,951.4609 Q647.4717,951.4609 648.1123,951.6172 Q648.7686,951.7734 649.3311,952.0703 L649.3311,954.7891 Q648.7061,954.2109 648.1123,953.9453 Q647.5186,953.6641 646.8936,953.6641 Q645.5498,953.6641 644.8623,954.7422 Q644.1748,955.8047 644.1748,957.8984 Q644.1748,959.9922 644.8623,961.0703 Q645.5498,962.1328 646.8936,962.1328 Q647.5186,962.1328 648.1123,961.8672 Q648.7061,961.5859 649.3311,961.0078 L649.3311,963.7266 Z " fill="#000000"/><text fill="#000000" font-family="DejaVu Sans" font-size="17" font-style="italic" lengthAdjust="spacing" textLength="147.5215" x="666.3394" y="954.0767">&#171;StatefulWidget&#187;</text><text fill="#000000" font-family="DejaVu Sans" font-size="17" lengthAdjust="spacing" textLength="146.4756" x="666.8623" y="973.8657">AlbumDetailPage</text><line style="stroke:#176C78;stroke-width:0.5;" x1="568" x2="879.7002" y1="982.875" y2="982.875"/><text fill="#000000" font-family="DejaVu Sans" font-size="17" lengthAdjust="spacing" textLength="133.1196" x="573" y="1002.6548">+album: Album</text><text fill="#000000" font-family="DejaVu Sans" font-size="17" lengthAdjust="spacing" textLength="270.5474" x="573" y="1022.4438">+authService: TidalAuthService</text><text fill="#000000" font-family="DejaVu Sans" font-size="17" lengthAdjust="spacing" textLength="298.106" x="573" y="1042.2329">+onAnmeldungUngueltig: Callback</text><text fill="#000000" font-family="DejaVu Sans" font-size="17" lengthAdjust="spacing" textLength="301.7002" x="573" y="1062.022">+onKategorienGeaendert: Callback</text><line style="stroke:#176C78;stroke-width:0.5;" x1="568" x2="879.7002" y1="1070.0313" y2="1070.0313"/></g><!--class AlbumCover--><g class="entity" data-entity="AlbumCover" data-source-line="57" data-uid="ent0010" id="entity_AlbumCover"><rect fill="#F1F7F8" height="85.3672" rx="4" ry="4" style="stroke:#176C78;stroke-width:0.5;" width="175.5215" x="392" y="1137.2969"/><ellipse cx="407" cy="1162.0859" fill="#ADD1B2" rx="11" ry="11" style="stroke:#181818;stroke-width:1;"/><path d="M409.9688,1167.7266 Q409.3906,1168.0234 408.75,1168.1641 Q408.1094,1168.3203 407.4063,1168.3203 Q404.9063,1168.3203 403.5781,1166.6797 Q402.2656,1165.0234 402.2656,1161.8984 Q402.2656,1158.7734 403.5781,1157.1172 Q404.9063,1155.4609 407.4063,1155.4609 Q408.1094,1155.4609 408.75,1155.6172 Q409.4063,1155.7734 409.9688,1156.0703 L409.9688,1158.7891 Q409.3438,1158.2109 408.75,1157.9453 Q408.1563,1157.6641 407.5313,1157.6641 Q406.1875,1157.6641 405.5,1158.7422 Q404.8125,1159.8047 404.8125,1161.8984 Q404.8125,1163.9922 405.5,1165.0703 Q406.1875,1166.1328 407.5313,1166.1328 Q408.1563,1166.1328 408.75,1165.8672 Q409.3438,1165.5859 409.9688,1165.0078 L409.9688,1167.7266 Z " fill="#000000"/><text fill="#000000" font-family="DejaVu Sans" font-size="17" font-style="italic" lengthAdjust="spacing" textLength="147.5215" x="419" y="1158.0767">&#171;StatefulWidget&#187;</text><text fill="#000000" font-family="DejaVu Sans" font-size="17" lengthAdjust="spacing" textLength="104.2578" x="440.6318" y="1177.8657">AlbumCover</text><line style="stroke:#176C78;stroke-width:0.5;" x1="393" x2="566.5215" y1="1186.875" y2="1186.875"/><text fill="#000000" font-family="DejaVu Sans" font-size="17" lengthAdjust="spacing" textLength="133.1196" x="398" y="1206.6548">+album: Album</text><line style="stroke:#176C78;stroke-width:0.5;" x1="393" x2="566.5215" y1="1214.6641" y2="1214.6641"/></g><g class="entity" data-entity="GMN22" data-source-line="72" data-uid="ent0023" id="entity_GMN22"><path d="M698.5,365.7969 L698.5,388.7969 L680.7988,392.7969 L698.5,396.7969 L698.5,420.1797 A4,4 0 0 0 702.5,424.1797 L1079.3086,424.1797 A4,4 0 0 0 1083.3086,420.1797 L1083.3086,371.7969 L1073.3086,361.7969 L702.5,361.7969 A4,4 0 0 0 698.5,365.7969" fill="#FFF4DC" style="stroke:#BC8B39;stroke-width:0.5;"/><path d="M1073.3086,361.7969 L1073.3086,369.7969 A2,2 0 0 0 1075.3086,371.7969 L1083.3086,371.7969 L1073.3086,361.7969" fill="#FFF4DC" style="stroke:#BC8B39;stroke-width:0.5;"/><text fill="#000000" font-family="DejaVu Sans" font-size="15" lengthAdjust="spacing" textLength="324.8291" x="704.5" y="380.7202">Start, lab and collection are switched using</text><text fill="#000000" font-family="DejaVu Sans" font-size="15" lengthAdjust="spacing" textLength="187.1484" x="704.5" y="398.1812">AppSeite. The lab has no</text><text fill="#000000" font-family="DejaVu Sans" font-size="15" lengthAdjust="spacing" textLength="363.8086" x="704.5" y="415.6421">separate Dart class. Detail pages use Navigator.</text></g><g class="entity" data-entity="GMN25" data-source-line="77" data-uid="ent0026" id="entity_GMN25"><path d="M586.5,1143.7969 L586.5,1215.6406 A4,4 0 0 0 590.5,1219.6406 L1013.0923,1219.6406 A4,4 0 0 0 1017.0923,1215.6406 L1017.0923,1149.7969 L1007.0923,1139.7969 L788.1755,1139.7969 L756.6271,1078.7438 L780.1755,1139.7969 L590.5,1139.7969 A4,4 0 0 0 586.5,1143.7969" fill="#FFF4DC" style="stroke:#BC8B39;stroke-width:0.5;"/><path d="M1007.0923,1139.7969 L1007.0923,1147.7969 A2,2 0 0 0 1009.0923,1149.7969 L1017.0923,1149.7969 L1007.0923,1139.7969" fill="#FFF4DC" style="stroke:#BC8B39;stroke-width:0.5;"/><text fill="#000000" font-family="DejaVu Sans" font-size="15" lengthAdjust="spacing" textLength="409.5923" x="592.5" y="1158.7202">Simplified selection; the associated States and dialogs</text><text fill="#000000" font-family="DejaVu Sans" font-size="15" lengthAdjust="spacing" textLength="257.1387" x="592.5" y="1176.1812">are listed in full in the class index.</text><text fill="#000000" font-family="DejaVu Sans" font-size="15" lengthAdjust="spacing" textLength="348.7573" x="592.5" y="1193.6421">The same AuthService reference is passed on.</text><text fill="#000000" font-family="DejaVu Sans" font-size="15" lengthAdjust="spacing" textLength="387.9639" x="592.5" y="1211.103">A callback reports the change; parent views reload.</text></g><g class="link" data-entity-1="Tidal2WiiMApp" data-entity-2="HomePage" data-uid="lnk11" id="link_Tidal2WiiMApp_HomePage"><polygon fill="#176C78" points="508,174.1959,512,165.1959,508,169.1959,504,165.1959,508,174.1959" style="stroke:#176C78;stroke-width:1;"/><path d="M508,115.6137 C508,133.6927 508,150.1519 508,168.1959" fill="none" style="stroke:#176C78;stroke-width:1.2;stroke-dasharray:7,7;"/><text fill="#000000" font-family="DejaVu Sans" font-size="17" lengthAdjust="spacing" textLength="65.7173" x="510" y="151.0767">Creates</text></g><g class="link" data-entity-1="HomePage" data-entity-2="_HomePageState" data-uid="lnk12" id="link_HomePage__HomePageState"><polygon fill="#176C78" points="508,299.0725,512,290.0725,508,294.0725,504,290.0725,508,299.0725" style="stroke:#176C78;stroke-width:1;"/><path d="M508,240.6806 C508,257.1428 508,272.0736 508,293.0725" fill="none" style="stroke:#176C78;stroke-width:1.2;stroke-dasharray:7,7;"/><text fill="#000000" font-family="DejaVu Sans" font-size="17" lengthAdjust="spacing" textLength="112.6001" x="510" y="276.0767">createState()</text></g><g class="link" data-entity-1="_HomePageState" data-entity-2="StartPage" data-uid="lnk13" id="link__HomePageState_StartPage"><polygon fill="#176C78" points="265.6376,545.1885,275.3899,543.813,269.8783,542.5396,271.1517,537.0279,265.6376,545.1885" style="stroke:#176C78;stroke-width:1;"/><path d="M359.7013,486.4316 C328.2834,506.0568 300.6686,523.3064 270.7264,542.0098" fill="none" style="stroke:#176C78;stroke-width:1.2;stroke-dasharray:7,7;"/><text fill="#000000" font-family="DejaVu Sans" font-size="17" lengthAdjust="spacing" textLength="51.5313" x="332" y="522.0767">Builds</text></g><g class="link" data-entity-1="_HomePageState" data-entity-2="KuenstlerPage" data-uid="lnk14" id="link__HomePageState_KuenstlerPage"><polygon fill="#176C78" points="422.4257,584.6275,429.7581,578.0521,424.4716,580.0652,422.4585,574.7787,422.4257,584.6275" style="stroke:#176C78;stroke-width:1;"/><path d="M466.4598,486.4316 C450.7905,521.3741 436.4346,553.3877 424.8808,579.1528" fill="none" style="stroke:#176C78;stroke-width:1.2;stroke-dasharray:7,7;"/><text fill="#000000" font-family="DejaVu Sans" font-size="17" lengthAdjust="spacing" textLength="54.2622" x="460" y="522.0767">Opens</text></g><g class="link" data-entity-1="_HomePageState" data-entity-2="KategoriePage" data-uid="lnk15" id="link__HomePageState_KategoriePage"><polygon fill="#176C78" points="593.5743,584.6275,593.5415,574.7787,591.5284,580.0652,586.2419,578.0521,593.5743,584.6275" style="stroke:#176C78;stroke-width:1;"/><path d="M549.5402,486.4316 C565.2095,521.3741 579.5654,553.3877 591.1192,579.1528" fill="none" style="stroke:#176C78;stroke-width:1.2;stroke-dasharray:7,7;"/><text fill="#000000" font-family="DejaVu Sans" font-size="17" lengthAdjust="spacing" textLength="54.2622" x="569" y="522.0767">Opens</text></g><g class="link" data-entity-1="_HomePageState" data-entity-2="AlbumDetailPage" data-uid="lnk16" id="link__HomePageState_AlbumDetailPage"><polygon fill="#176C78" points="738.8114,933.1576,744.2356,924.937,739.6328,928.2255,736.3443,923.6227,738.8114,933.1576" style="stroke:#176C78;stroke-width:1;"/><path d="M659.5311,486.53 C677.6363,503.8421 693.6811,523.4635 705,545.2969 C769.3078,669.3428 755.5592,832.6007 739.7971,927.2391" fill="none" style="stroke:#176C78;stroke-width:1.2;stroke-dasharray:7,7;"/><text fill="#000000" font-family="DejaVu Sans" font-size="17" lengthAdjust="spacing" textLength="54.2622" x="752" y="726.0767">Opens</text></g><g class="link" data-entity-1="KuenstlerPage" data-entity-2="AlbumGrid" data-uid="lnk17" id="link_KuenstlerPage_AlbumGrid"><polygon fill="#176C78" points="448.251,749.1161,446.2444,739.4739,445.332,745.0567,439.7492,744.1443,448.251,749.1161" style="stroke:#176C78;stroke-width:1;"/><path d="M412.05,650.8543 C415.98,674.2257 423.4171,706.0816 437,731.2969 C440.2675,737.3626 440.5917,738.4643 444.7482,744.2448" fill="none" style="stroke:#176C78;stroke-width:1.2;stroke-dasharray:7,7;"/><text fill="#000000" font-family="DejaVu Sans" font-size="17" lengthAdjust="spacing" textLength="108.9727" x="439" y="726.0767">ordner.alben</text></g><g class="link" data-entity-1="KategoriePage" data-entity-2="AlbumGrid" data-uid="lnk18" id="link_KategoriePage_AlbumGrid"><polygon fill="#176C78" points="540.8532,749.021,548.533,742.855,543.1446,744.577,541.4226,739.1887,540.8532,749.021" style="stroke:#176C78;stroke-width:1;"/><path d="M591.4296,650.9334 C577.6685,677.6217 560.4429,711.0288 543.6029,743.6882" fill="none" style="stroke:#176C78;stroke-width:1.2;stroke-dasharray:7,7;"/><text fill="#000000" font-family="DejaVu Sans" font-size="17" lengthAdjust="spacing" textLength="132.1152" x="564" y="726.0767">Filtered albums</text></g><g class="link" data-entity-1="AlbumGrid" data-entity-2="AlbumDetailPage" data-uid="lnk19" id="link_AlbumGrid_AlbumDetailPage"><polygon fill="#176C78" points="612.9957,933.1776,608.4459,924.4427,609.0839,930.0634,603.4632,930.7015,612.9957,933.1776" style="stroke:#176C78;stroke-width:1;"/><path d="M554.0607,874.4884 C565.6742,888.6141 578.6781,903.0598 592,915.2969 C598.627,921.3842 601.0047,923.6314 608.3016,929.4406" fill="none" style="stroke:#176C78;stroke-width:1.2;stroke-dasharray:7,7;"/><text fill="#000000" font-family="DejaVu Sans" font-size="17" lengthAdjust="spacing" textLength="114.1191" x="594" y="910.0767">Opens on tap</text></g><g class="link" data-entity-1="AlbumGrid" data-entity-2="AlbumCover" data-uid="lnk20" id="link_AlbumGrid_AlbumCover"><polygon fill="#176C78" points="479.9094,1136.9848,483.9588,1128.0069,479.9369,1131.9848,475.9589,1127.9629,479.9094,1136.9848" style="stroke:#176C78;stroke-width:1;"/><path d="M497.1992,874.5147 C494.0245,893.3204 490.9373,914.0966 489,933.2969 C481.8068,1004.5872 480.2117,1082.0371 479.9424,1130.9849" fill="none" style="stroke:#176C78;stroke-width:1.2;stroke-dasharray:7,7;"/><text fill="#000000" font-family="DejaVu Sans" font-size="17" lengthAdjust="spacing" textLength="65.7173" x="491" y="1012.0767">Creates</text></g><g class="link" data-entity-1="AlbumDetailPage" data-entity-2="AlbumCover" data-uid="lnk21" id="link_AlbumDetailPage_AlbumCover"><polygon fill="#176C78" points="539.0164,1137.1952,548.677,1135.2791,543.1031,1134.3144,544.0678,1128.7404,539.0164,1137.1952" style="stroke:#176C78;stroke-width:1;"/><path d="M622.2889,1078.4949 C593.9132,1098.4974 568.935,1116.105 543.9204,1133.7382" fill="none" style="stroke:#176C78;stroke-width:1.2;stroke-dasharray:7,7;"/><text fill="#000000" font-family="DejaVu Sans" font-size="17" lengthAdjust="spacing" textLength="65.7173" x="597" y="1114.0767">Creates</text></g><!--SRC=[bLRVRzis47xNNt73Nb9qC-PsMr8rC20xKpOqIGSuNHyBMZf9rr2aHb9EbwB_Uq-KPSkoR6H-iSJxU7VV_TGFbH5vAK2A_tJjm9ReX1A1VI1L2IDAM8da8JUwLkb2IstWnzZ_UeWKCr5B5slbxaI9S8MVnJyrB8MouwWbFI5Cptj2MuXKFvBA8HFIOa_YBIVQA3HmqJkFZD6F6u-cvxylpll26r9uJ9P8OMtadA5LxV2lH2llpYz3oFo0zpG-ZmyqpRL9qHmrfijAArJk6Tgsq9CQArOaSZpKTn57yNm4sDTsCNqpZrxtG7VQZQYAur-l5aDKNyzySJ5__MQ0s6NsjtvcyTyQLOAtQ2sx4qdA5IHC4yq8wczX72LKYUT4REpIoTXr5suemwP4JiUcG_jAkoyeUL3C0QQJLq51AKAcjLlfBu4Z9n4-M2vGQcXb8i4GzEep9iw2K2aaGigcZMpWT0LEmqexfxabo326j0fyAS4zfKA- -aXq6rKLN5ukdN0esUX7IdDqiza6zwSkcNIE7IIhvG3ngODuENmDuETFedP5sDg8-769Paq9UebSeGgvQwoxZEIgBcV-jAgMI8wvH9kdvlI1OsAPiFc3-1-bh5NUNBuLbHUpkLmRskfxrnrudQJ8aP1a2GsginSXnBMh3LwkDQMpZIzr-HwpZ5lXpByCGTys79cQSVqmz2FLK7xfhqVgIHGoR7B3HwwXloJtn6vVewsGaWAD2pabMhASfu4eouRKneSG5fliUUcDM6bpAEfyUjT5vvXV7QwBokaq-cHS6qfFKJn8tKknI-zOmfd6rhwwHe4gzI4uOECLNl5287d4prsOmnRzBEkHAb6c7ECFAgzHEie7KVuVxYtqcXllEPvz2_RxQpAPxJg9rHja3JRO7ZNoGH-5a7YKVpjx4Gp4pOrTLOOmhqccTWorNoSXlA_uVHIuLoWdWCDSTT1zIrkaBogUKYRbnJhnLHJisnf2Ov8yt3057rGRx6Gdp8DMu7WoZ83RnEtYFjHm5AXuru2Xl72Wiq66WZR-F_7dpAeTlLhATiQ2C0ZsaHmtV0grvO-DO3lP9d1VeBzK20jA1ppzcot0bgvONxlg9z2wnwirHyig4Ex4cdBXj9a4NARGkDRwjvdmxE205tj8PIKf8_R2uiQvj-3OFjlG2R7H53oRTdkaF31rRWDFW4Td8oO5NEko-Mykjlr0t2XV9e6dOfiFiLxVWS6i6RdyH9O9MCjQj69qj5rFZAcquPtbLHQ21_jRXl8j1sl2Hyi0gKMwu_eT]--></g></svg>